<svg width="179" height="100" viewBox="0 0 179 100" fill="none" xmlns="http://www.w3.org/2000/svg">
<path d="M109.144 53.0529L111.878 49.8806L114.215 50.6463L112.948 52.6284L109.692 53.1123L109.144 53.0529Z" fill="#0FA77F"/>
<path d="M109.144 53.0527L112.948 52.6282L111.618 58.0723L121.684 70.9201L110.096 68.4766L109.793 68.0532L102.033 65.9604L100.502 63.0069L109.144 53.0527Z" fill="#0C8363"/>
<circle cx="160.529" cy="73.3162" r="7.25882" fill="#60CFB2"/>
<circle cx="160.529" cy="73.3163" r="3.75039" fill="#0FA77F"/>
<path d="M151.817 63.3894L154.176 61.7376L161.681 72.456C162.137 73.1074 161.979 74.0053 161.327 74.4614C160.676 74.9176 159.778 74.7593 159.322 74.1078L151.817 63.3894Z" fill="#0C8363"/>
<path d="M148.817 59.5864L151.542 57.6781L159.473 66.8943L154.765 70.1904L148.817 59.5864Z" fill="#0C8363"/>
<path d="M170.248 61.9268L172.107 59.7109C172.34 59.4331 172.766 59.4199 173.022 59.6789C179.754 66.491 180.29 77.3646 174.157 84.6741C168.023 91.9837 157.222 93.3437 149.344 87.8968C149.045 87.6898 148.984 87.2683 149.217 86.9905L151.004 84.8605C151.094 84.7538 151.251 84.7346 151.364 84.8167C166.241 95.5889 183.466 75.062 170.267 62.289C170.167 62.1917 170.158 62.0336 170.248 61.9268Z" fill="#0C8363"/>
<path d="M169.014 60.8916L170.874 58.6757C171.107 58.3979 171.046 57.9764 170.746 57.7694C162.869 52.3225 152.067 53.6825 145.934 60.9921C139.8 68.3017 140.336 79.1753 147.069 85.9874C147.324 86.2463 147.75 86.2331 147.983 85.9553L149.77 83.8253C149.86 83.7186 149.852 83.5605 149.751 83.4632C136.559 70.683 153.783 50.155 168.654 60.9354C168.767 61.0175 168.925 60.9984 169.014 60.8916Z" fill="#0C8363"/>
<path d="M170.248 61.9268L172.107 59.7109C172.34 59.4331 172.766 59.4199 173.022 59.6789C179.754 66.491 180.29 77.3646 174.157 84.6741C168.023 91.9837 157.222 93.3437 149.344 87.8968C149.045 87.6898 148.984 87.2683 149.217 86.9905L151.004 84.8605C151.094 84.7538 151.251 84.7346 151.364 84.8167C166.241 95.5889 183.466 75.062 170.267 62.289C170.167 62.1917 170.158 62.0336 170.248 61.9268Z" stroke="#0C8363" stroke-width="0.297419"/>
<path d="M169.014 60.8916L170.874 58.6757C171.107 58.3979 171.046 57.9764 170.746 57.7694C162.869 52.3225 152.067 53.6825 145.934 60.9921C139.8 68.3017 140.336 79.1753 147.069 85.9874C147.324 86.2463 147.75 86.2331 147.983 85.9553L149.77 83.8253C149.86 83.7186 149.852 83.5605 149.751 83.4632C136.559 70.683 153.783 50.155 168.654 60.9354C168.767 61.0175 168.925 60.9984 169.014 60.8916Z" stroke="#0C8363" stroke-width="0.297419"/>
<path d="M100.502 63.005L101.86 65.6126L109.793 68.0535L110.096 68.4769L128.469 72.1063L146.919 43.3735L137.301 32.7877L132.583 29.5212L127.139 18.2701L129.377 14.5197L130.224 15.427L138.571 16.7578L144.257 18.996L145.165 18.2096L139.539 15.9714L131.252 14.5197L129.014 11.1322L131.917 9.43851L131.131 8.95459L126.627 10.7482C125.3 11.2768 124.582 12.7188 124.961 14.0963L126.594 13.7333L128.53 13.0074L129.377 14.5197L130.224 15.427L138.571 16.7578V19.8428L131.857 22.8673L134.216 28.3114L160.59 46.156L161.255 47.9103L160.59 48.8176L163.309 50.0629C165.766 51.1881 167.877 52.9514 169.421 55.1691H156.355L148.855 65.2709L142.157 72.8757C140.431 74.8358 139.479 77.3581 139.479 79.97L107.141 78.6856L103.623 77.2077L92.9822 71.4101L100.502 63.005Z" fill="#0FA77F"/>
<path d="M114.978 43.5363L122.451 39.0981L112.948 52.6286L111.878 49.8808C113.253 47.9991 114.29 45.8925 114.943 43.6553L114.978 43.5363Z" fill="#0FA77F"/>
<path d="M99.9788 31.0596L118.614 32.7039L122.569 39.0791L114.65 45.0681L114.652 44.9558C114.672 43.976 113.883 43.1713 112.903 43.1713H95.2391C94.9756 43.1713 94.7987 42.9008 94.9043 42.6594L99.9788 31.0596Z" fill="#0C8363"/>
<path d="M129.8 23.7141L138.571 19.8428C145.515 22.1444 151.395 26.8753 155.129 33.1657L162.949 46.3375L160.892 46.9424L153.452 41.3168L132.583 29.5212L129.8 23.7141Z" fill="#0C8363"/>
<path d="M129.845 6.3261C130.141 5.94798 130.651 5.8106 131.097 5.98892L140.325 9.68034L146.011 17.786L145.165 18.3304L139.599 16.1528L131.312 14.701L129.014 11.1321L131.917 9.43838L131.131 8.95446L129.932 7.75553C129.546 7.36948 129.509 6.75605 129.845 6.3261Z" fill="#0C8363"/>
<path d="M128.53 13.0073L129.377 14.5196L127.743 17.3021L125.384 14.0357L128.53 13.0073Z" fill="#0C8363"/>
<circle cx="125.929" cy="16.0927" r="2.17765" fill="#09654D"/>
<path d="M9.18381 58.3993L6.63885 56.2638C6.31978 55.9961 6.30468 55.5073 6.60205 55.2134C14.4257 47.4817 26.914 46.8657 35.3089 53.9099C43.7039 60.9541 45.2659 73.3597 39.0102 82.407C38.7724 82.7509 38.2884 82.8209 37.9693 82.5532L35.523 80.5005C35.4004 80.3976 35.3784 80.2172 35.4726 80.0871C47.8445 63.0012 24.2695 43.2182 9.59972 58.377C9.48801 58.4924 9.30642 58.5022 9.18381 58.3993Z" fill="#0FA77F"/>
<path d="M7.99489 59.8162L5.44993 57.6807C5.13085 57.413 4.64684 57.483 4.40906 57.8269C-1.84666 66.8743 -0.284684 79.2798 8.11029 86.324C16.5053 93.3682 28.9935 92.7523 36.8172 85.0205C37.1146 84.7267 37.0995 84.2378 36.7804 83.9701L34.3341 81.9174C34.2115 81.8145 34.03 81.8242 33.9182 81.9396C19.2403 97.0904 -4.33598 77.3089 8.04516 60.2297C8.13944 60.0996 8.1175 59.9191 7.99489 59.8162Z" fill="#0FA77F"/>
<path d="M9.18381 58.3993L6.63885 56.2638C6.31978 55.9961 6.30468 55.5073 6.60205 55.2134C14.4257 47.4817 26.914 46.8657 35.3089 53.9099C43.7039 60.9541 45.2659 73.3597 39.0102 82.407C38.7724 82.7509 38.2884 82.8209 37.9693 82.5532L35.523 80.5005C35.4004 80.3976 35.3784 80.2172 35.4726 80.0871C47.8445 63.0012 24.2695 43.2182 9.59972 58.377C9.48801 58.4924 9.30642 58.5022 9.18381 58.3993Z" stroke="#0FA77F" stroke-width="0.218775"/>
<path d="M7.99489 59.8162L5.44993 57.6807C5.13085 57.413 4.64684 57.483 4.40906 57.8269C-1.84666 66.8743 -0.284684 79.2798 8.11029 86.324C16.5053 93.3682 28.9935 92.7523 36.8172 85.0205C37.1146 84.7267 37.0995 84.2378 36.7804 83.9701L34.3341 81.9174C34.2115 81.8145 34.03 81.8242 33.9182 81.9396C19.2403 97.0904 -4.33598 77.3089 8.04516 60.2297C8.13944 60.0996 8.1175 59.9191 7.99489 59.8162Z" stroke="#0FA77F" stroke-width="0.218775"/>
<path d="M39.7232 21.3193C40.0844 20.3959 39.4034 19.3984 38.4119 19.3984H32.9066C30.5738 19.3984 28.6827 17.5073 28.6827 15.1745V11.8306H38.5945C40.2307 11.8306 41.7811 11.0989 42.8211 9.83594C44.9013 7.31001 47.2713 5.84668 50.5435 5.84668H56.4249C57.7857 5.84668 58.8889 6.94983 58.8889 8.31063C58.8889 9.67144 57.7857 10.7746 56.4249 10.7746H50.7647C49.1031 10.7746 48.2257 11.3624 46.9557 12.4339L43.2905 15.5265L44.1559 17.0266C45.2719 18.9611 45.4039 21.3103 44.5115 23.3576L36.764 42.0215L49.9567 53.9504C50.2332 54.2004 50.652 54.1989 50.9586 53.9867C51.228 53.8004 51.5212 53.6292 51.8285 53.475C53.4975 52.6375 55.4278 52.6298 57.2952 52.6298H58.0337C59.0349 52.6298 59.9922 52.219 60.682 51.4934L70.3811 41.2907H61.9083C61.7443 41.2907 61.6114 41.1578 61.6114 40.9939C61.6114 36.0451 65.4963 31.9677 70.4393 31.7285L84.2664 31.0595L63.9822 54.8188C62.5937 56.4451 60.5626 57.3818 58.4242 57.3818H55.0186C47.3607 57.3818 45.6465 67.2929 54.4906 67.2929H74.9486L79.9181 59.0128H82.7534C83.027 59.0128 83.2036 59.3024 83.0782 59.5456L77.0046 71.3274H57.6992C54.9801 71.3274 52.1884 71.2325 49.7219 70.0882C44.3398 67.5911 42.3864 62.6007 46.3947 57.0298L34.937 46.041L24.9331 68.3572L21.2372 70.6452L20.3572 67.1253V66.9493L39.7232 21.3193Z" fill="#0FA77F"/>
<path d="M25.6371 70.6452C25.6371 73.0752 23.6672 75.0451 21.2372 75.0451C18.8072 75.0451 16.8373 73.0752 16.8373 70.6452C16.8373 68.2152 18.8072 66.2453 21.2372 66.2453C23.6672 66.2453 25.6371 68.2152 25.6371 70.6452Z" fill="#0FA77F"/>
<path d="M66.9134 54.2376L112.678 0L91.824 44.0691C91.6204 44.3826 91.8399 44.8021 92.2076 44.8021H109.786C111.335 44.8021 112.323 46.6578 111.323 47.8686L65.5571 100L85.3397 58.0382C85.5445 57.7247 85.325 57.5226 84.9568 57.5226H68.3024C66.7534 57.5226 65.9129 55.4485 66.9134 54.2376Z" fill="#074D3B"/>
</svg>
