<svg width="126" height="24" viewBox="0 0 126 24" fill="none" xmlns="http://www.w3.org/2000/svg">
<path d="M1.66635 21.778L1.33625 22.3539H2.00004H13.8914C15.1693 22.3539 16.4014 21.8778 17.3472 21.0184C19.8718 18.7247 19.5023 14.653 16.606 12.8512L16.1007 12.5368C15.5309 12.1824 15.4698 11.3763 15.9797 10.9401C18.2981 8.9566 18.301 5.37268 15.986 3.38536L15.4821 2.95283C14.4769 2.08994 13.1959 1.61554 11.8711 1.61554H2.00004H1.33633L1.66633 2.19139L2.06232 2.8824C2.76169 4.10279 4.06071 4.85557 5.46729 4.85557H10.6569C11.0342 4.85557 11.4072 4.93527 11.7515 5.08946C13.7376 5.9789 13.8898 8.74028 12.0134 9.84256L11.8568 9.93457C11.4312 10.1846 10.9465 10.3164 10.4529 10.3164H3.41597H3.03135V10.701V11.8702V13.1717V13.5563H3.41597H12.439C12.9112 13.5563 13.3757 13.6762 13.7889 13.9049L13.8537 13.9408C15.7945 15.0148 15.7296 17.8269 13.7413 18.8103C13.3641 18.9968 12.9492 19.0943 12.5284 19.0952L5.46122 19.1101C4.05776 19.1131 2.76271 19.8653 2.06477 21.0829L1.66635 21.778Z" fill="white" stroke="white" stroke-width="0.769231"/>
<path d="M40.1969 21.7933L40.527 22.3692H39.8632H27.9718C26.6939 22.3692 25.4619 21.8931 24.516 21.0338C21.9914 18.7401 22.3609 14.6683 25.2572 12.8666L25.4055 12.7743C26.0682 12.3621 26.0716 11.3987 25.4118 10.9818L25.1753 10.8324C22.3403 9.04107 22.0463 5.01803 24.5909 2.8337C25.495 2.0576 26.6472 1.63092 27.8387 1.63092H39.8632H40.5269L40.1969 2.20677L39.8009 2.89778C39.1015 4.11817 37.8025 4.87095 36.3959 4.87095H29.2689C28.8854 4.87095 28.5062 4.95198 28.1561 5.10873C26.1567 6.00417 25.9958 8.79479 27.879 9.93462C28.3068 10.1935 28.7998 10.3318 29.2989 10.3318H35.5499H35.9345V10.7164V11.8856V13.187V13.5717H35.5499H29.4242C28.952 13.5717 28.4875 13.6916 28.0743 13.9203L28.0095 13.9561C26.0687 15.0302 26.1336 17.8422 28.1219 18.8256C28.4991 19.0122 28.914 19.1097 29.3348 19.1106L36.402 19.1255C37.8055 19.1285 39.1005 19.8807 39.7985 21.0983L40.1969 21.7933Z" fill="white" stroke="white" stroke-width="0.769231"/>
<path d="M61.5264 2V1.61538H61.1418H47.6107C45.9125 1.61538 44.5357 2.99211 44.5357 4.6904V4.88905V5.27367H44.9203H51.4113V22V22.3846H51.7959H54.2668H54.6514V22V5.59702C54.6514 5.41844 54.7962 5.27367 54.9748 5.27367H58.4514C60.1497 5.27367 61.5264 3.89694 61.5264 2.19865V2Z" fill="white" stroke="white" stroke-width="0.769231"/>
<path d="M80.294 1.63092H80.6786V2.01553V14.9085C80.6786 19.029 77.3383 22.3692 73.2179 22.3692C69.0974 22.3692 65.7572 19.0289 65.7572 14.9085V2.01553V1.63092H66.1418H66.3113C67.7945 1.63092 68.9968 2.83326 68.9968 4.31642V14.9091C68.9968 17.2403 70.8866 19.13 73.2177 19.13C75.5488 19.13 77.4386 17.2403 77.4386 14.9091V4.31642C77.4386 2.83326 78.6409 1.63092 80.1241 1.63092H80.294Z" fill="white" stroke="white" stroke-width="0.769231"/>
<path d="M85.294 22.3692H84.9094V21.9846V2.01553V1.63092H85.294H85.4635C86.9467 1.63092 88.149 2.83326 88.149 4.31642V18.7872C88.149 18.9655 88.2934 19.1102 88.4717 19.1106L94.7809 19.1247C96.2617 19.128 97.4604 20.3294 97.4604 21.8102V21.9846V22.3692H97.0758H85.294Z" fill="white" stroke="white" stroke-width="0.769231"/>
<path d="M102.076 22.3692H101.691V21.9846V4.31642C101.691 2.83326 102.894 1.63092 104.377 1.63092H104.546H104.931V2.01553V19.6837C104.931 21.1669 103.728 22.3692 102.245 22.3692H102.076Z" fill="white" stroke="white" stroke-width="0.769231"/>
<path d="M109.83 1.75526L109.162 1.02776V2.01538V21.9845V22.3691H109.546H109.716C111.199 22.3691 112.401 21.1667 112.401 19.6836V10.3153C112.401 10.0207 112.763 9.87952 112.963 10.0963L124.14 22.2449L124.808 22.9705V21.9845V2.01538V1.63077H124.423H124.228C122.745 1.63077 121.542 2.8331 121.542 4.31626V13.6826C121.542 13.9773 121.18 14.1184 120.981 13.9013L109.83 1.75526Z" fill="white" stroke="white" stroke-width="0.769231"/>
</svg>
